<?xml version="1.0" standalone="no"?>
<!DOCTYPE svg PUBLIC "-//W3C//DTD SVG 20010904//EN"
 "http://www.w3.org/TR/2001/REC-SVG-20010904/DTD/svg10.dtd">
<svg version="1.0" xmlns="http://www.w3.org/2000/svg"
 width="700.000000pt" height="700.000000pt" viewBox="0 0 700.000000 700.000000"
 preserveAspectRatio="xMidYMid meet">
<metadata>
Created by potrace 1.14, written by Peter Selinger 2001-2017
</metadata>
<g transform="translate(0.000000,700.000000) scale(0.100000,-0.100000)"
fill="#000000" stroke="none">
<path d="M3960 6944 c-169 -31 -316 -155 -364 -309 -9 -27 -27 -144 -41 -260
-35 -294 -34 -285 -40 -335 -5 -42 -9 -75 -20 -160 -2 -19 -7 -57 -10 -85 -3
-27 -8 -66 -10 -85 -8 -63 -35 -284 -40 -330 -6 -52 -10 -84 -25 -195 -5 -44
-12 -100 -15 -125 -3 -25 -9 -79 -15 -120 -15 -121 -20 -162 -25 -215 -3 -27
-7 -63 -10 -80 -3 -16 -7 -55 -10 -86 -3 -31 -7 -66 -10 -78 -2 -12 -7 -52
-11 -89 -3 -36 -7 -73 -9 -82 -3 -17 -17 -125 -30 -240 -8 -71 -17 -145 -20
-160 -2 -8 -6 -46 -10 -85 -16 -164 29 -265 -585 1330 -273 707 -355 916 -377
954 -149 257 -503 302 -714 91 -116 -115 -164 -280 -125 -426 7 -28 48 -147
91 -263 42 -117 75 -214 74 -216 -2 -2 -22 0 -44 4 -128 24 -273 -28 -380
-134 -68 -67 -107 -141 -126 -234 -18 -96 -6 -168 61 -361 34 -96 83 -238 110
-315 27 -77 78 -225 115 -330 37 -104 105 -300 151 -435 47 -135 103 -297 126
-360 22 -63 46 -135 55 -160 8 -25 18 -54 23 -65 5 -11 27 -74 50 -140 l41
-121 -6 -124 c-3 -69 -8 -170 -11 -225 -3 -55 -7 -217 -8 -360 -3 -212 0 -285
15 -394 10 -74 21 -142 24 -152 3 -10 8 -28 10 -41 4 -19 14 -63 20 -88 43
-170 140 -391 232 -528 163 -243 400 -437 663 -540 246 -97 508 -131 840 -109
403 27 747 142 1016 339 129 95 318 305 385 428 8 14 16 27 19 30 14 12 91
173 124 258 33 84 88 260 100 322 3 14 7 34 10 46 2 11 12 67 21 125 18 103
18 105 118 269 55 91 107 177 116 192 18 30 432 711 622 1023 67 110 133 218
146 240 13 22 29 49 36 59 63 101 80 132 98 178 27 67 33 195 14 267 -57 218
-237 353 -461 346 -128 -4 -245 -60 -325 -156 -20 -24 -222 -322 -448 -661
-226 -340 -413 -618 -415 -618 -1 0 0 21 4 48 5 26 11 76 15 112 3 36 8 76 10
90 3 14 7 50 10 80 3 30 7 66 10 80 2 14 6 54 10 90 3 36 8 76 10 90 2 14 7
48 10 75 3 28 8 66 10 85 2 19 7 58 10 85 3 28 7 66 10 85 2 19 7 60 10 90 4
30 8 66 10 80 2 14 6 48 10 75 3 28 7 64 9 80 2 17 7 62 11 100 4 39 9 78 11
88 2 10 6 45 9 78 4 33 8 69 10 79 2 10 6 47 10 81 3 34 8 76 10 93 2 17 7 54
10 81 3 28 8 66 10 85 3 19 16 130 30 245 14 116 28 230 31 255 3 25 8 65 10
90 2 25 11 97 19 160 8 63 17 138 20 165 3 28 8 66 11 85 13 90 16 242 5 284
-21 83 -64 159 -125 220 -122 121 -292 162 -463 111 l-44 -13 8 56 c9 71 9
196 1 241 -12 60 -68 160 -119 211 -86 86 -181 128 -303 135 -39 2 -82 1 -96
-1z m200 -271 c47 -34 90 -107 92 -160 2 -33 -3 -86 -16 -188 -3 -16 -7 -59
-11 -95 -3 -36 -8 -72 -10 -80 -2 -8 -6 -46 -10 -83 -3 -37 -8 -77 -10 -87 -2
-10 -6 -46 -10 -79 -3 -33 -7 -68 -9 -78 -2 -10 -7 -49 -11 -87 -4 -38 -9 -79
-11 -90 -2 -12 -6 -46 -9 -76 -2 -30 -7 -71 -10 -90 -2 -19 -7 -57 -10 -85 -6
-52 -12 -104 -20 -165 -3 -19 -8 -62 -11 -95 -3 -33 -8 -68 -10 -78 -2 -10 -6
-48 -10 -85 -3 -36 -8 -75 -10 -85 -2 -10 -8 -64 -14 -120 -6 -56 -13 -109
-15 -117 -2 -8 -6 -46 -10 -83 -3 -37 -8 -76 -10 -85 -2 -15 -8 -60 -21 -177
-2 -22 -6 -56 -9 -75 -3 -19 -7 -57 -10 -85 -3 -27 -7 -63 -9 -80 -2 -16 -7
-55 -11 -85 -3 -30 -8 -66 -10 -80 -2 -14 -6 -54 -10 -90 -4 -36 -8 -76 -10
-90 -2 -14 -7 -50 -10 -80 -3 -30 -8 -66 -10 -80 -2 -14 -7 -54 -10 -90 -4
-36 -9 -74 -11 -85 -8 -39 -18 -161 -17 -192 4 -90 107 -137 183 -83 33 24 46
60 55 150 3 36 8 72 10 80 2 8 6 46 10 83 3 37 8 76 10 85 1 9 6 44 9 77 4 33
9 71 11 85 3 25 15 123 20 170 7 68 21 190 29 245 6 46 17 138 21 175 3 28 9
79 31 255 8 66 17 140 20 165 3 25 7 59 9 75 2 17 7 57 10 90 3 33 8 71 10 85
2 14 6 50 10 80 3 30 10 89 15 130 6 41 12 95 15 120 3 25 7 61 10 80 2 19 7
62 11 95 3 33 8 67 9 75 2 8 6 42 10 75 3 33 8 74 10 90 2 17 6 57 10 90 7 68
10 84 18 105 3 8 13 40 21 71 53 192 319 215 413 36 21 -41 24 -126 7 -252 -7
-55 -16 -127 -20 -160 -3 -33 -7 -67 -9 -75 -2 -9 -6 -46 -9 -82 -4 -37 -8
-75 -10 -85 -2 -10 -7 -45 -10 -78 -8 -71 -15 -127 -21 -175 -3 -19 -7 -60
-10 -90 -3 -30 -7 -66 -10 -80 -2 -14 -7 -50 -10 -80 -3 -30 -8 -71 -10 -90
-3 -19 -7 -53 -10 -75 -8 -72 -17 -150 -20 -173 -1 -12 -6 -50 -9 -85 -4 -34
-9 -73 -11 -87 -2 -14 -7 -47 -10 -75 -2 -27 -16 -142 -30 -255 -37 -305 -33
-273 -50 -427 -6 -53 -13 -109 -20 -163 -3 -19 -8 -62 -11 -95 -3 -33 -8 -69
-10 -80 -2 -10 -6 -49 -10 -85 -3 -36 -8 -74 -10 -85 -2 -11 -6 -45 -9 -75 -3
-30 -8 -71 -10 -90 -8 -55 -14 -101 -20 -155 -3 -27 -8 -68 -10 -90 -3 -22 -7
-56 -9 -75 -8 -74 -18 -156 -21 -179 -6 -33 18 -84 50 -109 33 -26 120 -30
163 -8 19 10 196 267 576 835 542 811 548 820 599 846 116 57 256 10 304 -102
21 -52 20 -139 -2 -183 -10 -19 -118 -199 -240 -400 -122 -201 -307 -504 -410
-675 -104 -170 -250 -413 -327 -538 -76 -125 -140 -242 -144 -260 -3 -18 -7
-52 -10 -77 -9 -85 -55 -275 -99 -405 -165 -492 -496 -801 -991 -926 -61 -15
-137 -31 -170 -34 -32 -4 -62 -9 -65 -11 -13 -7 -195 -18 -314 -18 -110 0
-227 8 -286 19 -13 3 -48 9 -77 15 -145 26 -343 115 -474 212 -134 98 -286
283 -366 443 -80 161 -140 369 -168 580 -18 134 -20 274 -11 520 4 88 10 239
14 335 10 258 11 249 -50 420 -70 196 -122 345 -417 1195 -67 193 -130 375
-142 405 -11 30 -22 62 -24 70 -2 8 -26 79 -53 157 -53 155 -56 193 -22 261
75 146 285 163 395 31 43 -51 55 -80 235 -579 95 -261 199 -547 231 -635 32
-88 91 -250 130 -360 40 -110 80 -208 89 -219 72 -82 204 -32 204 77 0 19
-281 811 -325 917 -5 14 -48 131 -95 260 -46 129 -179 496 -295 815 -230 632
-232 639 -190 722 74 143 280 166 374 40 13 -17 88 -196 166 -397 77 -201 200
-518 272 -705 72 -187 142 -367 155 -400 35 -90 199 -514 314 -815 56 -146
106 -274 111 -285 5 -11 32 -78 60 -150 28 -71 57 -138 64 -148 8 -11 31 -25
52 -32 45 -15 88 -4 121 31 25 27 24 21 53 289 13 110 24 209 26 219 2 11 6
44 9 74 3 30 7 67 9 81 3 14 7 51 11 81 3 30 10 89 15 130 11 86 17 136 25
200 13 115 17 147 20 170 2 14 7 48 10 75 3 28 7 66 10 85 2 19 7 60 10 90 3
30 8 66 10 80 5 29 12 83 20 160 3 30 8 66 10 80 2 14 7 50 10 80 6 57 22 188
31 251 2 20 6 54 9 75 2 21 6 55 9 74 2 19 7 62 11 95 3 33 8 71 10 85 2 14 7
43 9 65 3 22 8 63 11 90 4 28 8 64 10 81 1 17 6 56 9 85 4 30 9 70 12 89 2 19
6 55 9 80 3 25 8 61 10 81 3 20 8 56 10 79 14 133 37 299 47 328 13 42 61 98
102 119 72 38 171 32 236 -14z"/>
</g>
</svg>
