
<svg height='200px' width='200px' fill="#333" xmlns="http://www.w3.org/2000/svg" data-name="Layer 1" viewBox="0 0 512 512" x="0px" y="0px"><title>Audio</title><path d="M67.66,400.5c4.46,66.14,65,115.92,135.17,111.19,57.3-3.86,103.27-42.87,115.82-93.05A37.56,37.56,0,0,0,322,403V91h77.29c25,0,45.71-20.47,45.71-45.5V45.41C445,20.38,424.31,0,399.29,0H291.5c-1.29,0-2.56.07-3.81,0.17C286.53,0.06,285.35,0,284.15,0h-0.09A38.16,38.16,0,0,0,246,38v7.35h0V281.7a132.42,132.42,0,0,0-59.42-9.52C116.39,276.91,63.2,334.36,67.66,400.5Z"></path></svg>