<svg height='300px' width='300px' fill="#333" xmlns:dc="http://purl.org/dc/elements/1.1/" xmlns:cc="http://creativecommons.org/ns#" xmlns:rdf="http://www.w3.org/1999/02/22-rdf-syntax-ns#" xmlns:svg="http://www.w3.org/2000/svg" xmlns="http://www.w3.org/2000/svg" version="1.1" viewBox="0 0 16.933334 16.933333" x="0px" y="0px"><g style="" transform="translate(0,-280.06661)" display="inline"><path transform="matrix(0.26458333,0,0,0.26458333,0,280.06661)" d="M 37.292969,6.0371094 A 3.5438847,3.5438847 0 0 0 33.75,9.5800781 V 25.273438 l 7.085938,7.08789 V 13.125 h 7.08789 a 3.5439453,3.5439453 0 1 0 0,-7.0878906 z M 10.046875,11.308594 A 3.0002999,3.0002999 0 0 0 7.9570312,16.460938 L 21.972656,30.476562 c -5.511524,1.946508 -9.490234,7.203684 -9.490234,13.363282 0,7.801738 6.372058,14.173828 14.173828,14.173828 6.160237,0 11.417264,-3.979771 13.363281,-9.492188 l 7.535157,7.535157 A 3.0013803,3.0013803 0 1 0 51.798828,51.8125 L 40.835938,40.849609 30.080078,30.09375 12.203125,12.216797 a 3.0002999,3.0002999 0 0 0 -2.15625,-0.908203 z" style="color:#000000;font-style:normal;font-variant:normal;font-weight:normal;font-stretch:normal;font-size:medium;line-height:normal;font-family:sans-serif;font-variant-ligatures:normal;font-variant-position:normal;font-variant-caps:normal;font-variant-numeric:normal;font-variant-alternates:normal;font-feature-settings:normal;text-indent:0;text-align:start;text-decoration:none;text-decoration-line:none;text-decoration-style:solid;text-decoration-color:#000000;letter-spacing:normal;word-spacing:normal;text-transform:none;writing-mode:lr-tb;direction:ltr;text-orientation:mixed;dominant-baseline:auto;baseline-shift:baseline;text-anchor:start;white-space:normal;shape-padding:0;clip-rule:nonzero;display:inline;overflow:visible;visibility:visible;opacity:1;isolation:auto;mix-blend-mode:normal;color-interpolation:sRGB;color-interpolation-filters:linearRGB;solid-color:#000000;solid-opacity:1;vector-effect:none;fill:#000000;fill-opacity:1;fill-rule:nonzero;stroke:none;stroke-width:4.72470665;stroke-linecap:round;stroke-linejoin:round;stroke-miterlimit:4;stroke-dasharray:none;stroke-dashoffset:0;stroke-opacity:1;paint-order:fill markers stroke;color-rendering:auto;image-rendering:auto;shape-rendering:auto;text-rendering:auto;enable-background:accumulate"></path></g></svg>