<svg height='300px' width='300px'  fill="#333" xmlns="http://www.w3.org/2000/svg" xmlns:xlink="http://www.w3.org/1999/xlink" version="1.1" x="0px" y="0px" viewBox="0 0 100 100" style="enable-background:new 0 0 100 100;" xml:space="preserve"><style type="text/css">
	.st0{fill:none;}
</style><path class="st0" d="M20,19.4c0.6,2.8,3.3,4.5,6.1,4.8v-0.1H76V12.4H27.6l0,0c-3.3,0-6.8,1.6-7.6,4.5V19.4z"></path><path d="M77.5,13.8H45.6c-0.8,0-1.5,0.7-1.5,1.5s0.7,1.5,1.5,1.5h31.9c0.8,0,1.5-0.7,1.5-1.5S78.3,13.8,77.5,13.8z"></path><path d="M54.3,18.9H35.2c-0.8,0-1.5,0.7-1.5,1.5s0.7,1.5,1.5,1.5h19.1c0.8,0,1.5-0.7,1.5-1.5S55.1,18.9,54.3,18.9z"></path><path d="M80.6,24.1V7.7H80h-4H26.8c-5.7,0.3-11.6,4-11.6,10.4c0,0.6-0.1,2,0,2.6v60.9v0.7c0.5,6.3,6.5,9.7,12.3,9.7l57.1,0.3  l0.1-63.5v-4.7H80.6z M52.8,83.4c-3.2,0-5.7-2.5-5.7-5.9s2.5-5.9,5.8-5.9c3.3,0,5.6,2.5,5.7,5.9C58.6,80.8,56.1,83.4,52.8,83.4z   M60.4,57.5c-2.5,3.2-3.6,5.7-3.4,8.8v1.8c0,1-0.6,1.8-1.7,1.8h-5.2c-0.8,0-1.6-0.6-1.7-1.6l-0.1-1.7c-0.4-4.1,1.1-8.6,4.6-12.8  c2.8-3.3,4.3-5.6,4.3-8.2c0-2.6-1.6-4.1-4.8-4.1c-2.1,0-4.5,0.6-5.8,1.7c-1,0.6-2.2,0.2-2.6-0.8l-2-5.5L43,36  c2.6-1.9,6.7-3.1,10.7-3.1c9,0,13.1,5.8,12.9,11.8C66.7,49.8,63.9,53.3,60.4,57.5z M76,24.2l-49.9,0.1c-2.8-0.3-5.4-2-6.1-4.8V17  c0.7-3,4.2-4.5,7.6-4.5H76V24.2z"></path></svg>