<svg height='300px' width='300px'  fill="#333" xmlns="http://www.w3.org/2000/svg" xmlns:xlink="http://www.w3.org/1999/xlink" version="1.1" x="0px" y="0px" viewBox="0 0 100 100" style="enable-background:new 0 0 100 100;" xml:space="preserve"><style type="text/css">
	.st0{display:none;}
	.st1{display:inline;}
</style><g><path d="M62.9,12.4c-0.5-0.2-1.2-0.1-1.6,0.3L35.6,38.3H23.3c-3.6,0-6.1,3-6.1,7.3l0.2,11.9c0,3.8,3.1,7,7,7h12.3l24.7,22.9   c0.3,0.3,0.6,0.4,1,0.4c0.2,0,0.4,0,0.6-0.1c0.5-0.2,0.9-0.8,0.9-1.3V13.7C63.8,13.1,63.5,12.6,62.9,12.4z"></path><path d="M74.8,36.4c-0.6-0.5-1.6-0.3-2,0.3c-0.5,0.6-0.3,1.6,0.3,2c3.1,2.2,6.7,6.1,6.7,11.7c0,5.6-3.7,9.4-6.7,11.7   c-0.7,0.5-0.8,1.4-0.3,2c0.3,0.4,0.7,0.6,1.2,0.6c0.3,0,0.6-0.1,0.9-0.3c5.1-3.7,7.9-8.7,7.9-14C82.7,45.1,79.9,40.1,74.8,36.4z"></path></g><g class="st0"><path class="st1" d="M77,27.2c-0.6-0.5-1.5-0.4-2,0.2c-0.5,0.6-0.4,1.5,0.2,2c6.4,5.3,10.5,13.5,10.5,20.9   c0,7.4-4.1,15.6-10.5,20.9c-0.6,0.5-0.7,1.4-0.2,2c0.3,0.3,0.7,0.5,1.1,0.5c0.3,0,0.7-0.1,0.9-0.3c7-5.8,11.5-14.9,11.5-23.1   C88.5,42.1,84,33,77,27.2z"></path><path class="st1" d="M69.6,36.4c-0.6-0.5-1.6-0.3-2,0.3c-0.5,0.6-0.3,1.6,0.3,2c3.1,2.2,6.7,6.1,6.7,11.7c0,5.6-3.7,9.4-6.7,11.7   c-0.6,0.5-0.8,1.4-0.3,2c0.3,0.4,0.7,0.6,1.2,0.6c0.3,0,0.6-0.1,0.9-0.3c5.1-3.7,7.9-8.7,7.9-14C77.5,45.1,74.7,40.1,69.6,36.4z"></path><path class="st1" d="M57.1,12.4c-0.5-0.2-1.2-0.1-1.6,0.3L29.8,38.3H17.5c-3.6,0-6.1,3-6.1,7.3l0.2,11.9c0,3.8,3.1,7,7,7h12.3   l24.7,22.9c0.3,0.3,0.6,0.4,1,0.4c0.2,0,0.4,0,0.6-0.1c0.5-0.2,0.9-0.8,0.9-1.3V13.7C58,13.1,57.6,12.6,57.1,12.4z"></path></g><g class="st0"><path class="st1" d="M80.5,19.7c-0.6-0.5-1.5-0.5-2.1,0.1c-0.5,0.6-0.5,1.5,0.1,2.1C86.5,28.8,91,39.2,91,50.4   c0,11.2-4.5,21.5-12.4,28.4c-0.6,0.5-0.7,1.5-0.1,2.1c0.3,0.3,0.7,0.5,1.1,0.5c0.3,0,0.7-0.1,1-0.4c8.5-7.5,13.4-18.6,13.4-30.6   C93.9,38.4,89,27.2,80.5,19.7z"></path><path class="st1" d="M71.2,27.1c-0.6-0.5-1.5-0.4-2.1,0.2c-0.5,0.6-0.4,1.5,0.2,2.1c6.4,5.3,10.5,13.5,10.5,21   c0,7.5-4.1,15.7-10.5,21c-0.6,0.5-0.7,1.4-0.2,2.1c0.3,0.4,0.7,0.5,1.1,0.5c0.3,0,0.7-0.1,0.9-0.3c7.1-5.8,11.6-15,11.6-23.3   C82.8,42.1,78.3,32.9,71.2,27.1z"></path><path class="st1" d="M63.8,36.3c-0.7-0.5-1.6-0.3-2,0.3c-0.5,0.7-0.3,1.6,0.3,2c3.1,2.2,6.8,6.1,6.8,11.7c0,5.6-3.7,9.5-6.8,11.7   c-0.7,0.5-0.8,1.4-0.3,2c0.3,0.4,0.7,0.6,1.2,0.6c0.3,0,0.6-0.1,0.9-0.3c5.2-3.7,8-8.7,8-14.1C71.8,45,68.9,40,63.8,36.3z"></path><path class="st1" d="M52,12.1c-0.5-0.2-1.2-0.1-1.6,0.3L24.5,38.2H12.2c-3.6,0-6.1,3-6.1,7.3l0.2,12c0,3.9,3.1,7,7,7h12.3l24.8,23   c0.3,0.3,0.6,0.4,1,0.4c0.2,0,0.4,0,0.6-0.1c0.5-0.2,0.9-0.8,0.9-1.3V13.5C52.9,12.9,52.6,12.3,52,12.1z"></path></g><g class="st0"><path class="st1" d="M58.5,87.6c0.3,0.3,0.6,0.4,1,0.4c0.2,0,0.4,0,0.6-0.1c0.5-0.2,0.9-0.8,0.9-1.3V43.8L37,67.7L58.5,87.6z"></path><path class="st1" d="M21.5,64.7h3.9l35.5-35.4V13.9c0-0.6-0.4-1.1-0.9-1.3c-0.5-0.2-1.2-0.1-1.6,0.3L32.7,38.5H20.5   c-3.6,0-6.1,3-6.1,7.3l0.2,11.9C14.6,61.6,17.7,64.7,21.5,64.7z"></path><path class="st1" d="M71.9,36.6c-0.6-0.5-1.6-0.3-2,0.3c-0.5,0.6-0.3,1.6,0.3,2c3.1,2.2,6.7,6.1,6.7,11.7c0,5.6-3.7,9.4-6.7,11.7   c-0.7,0.5-0.8,1.4-0.3,2c0.3,0.4,0.7,0.6,1.2,0.6c0.3,0,0.6-0.1,0.9-0.3c5.1-3.7,7.9-8.7,7.9-14C79.8,45.3,77,40.3,71.9,36.6z"></path><path class="st1" d="M85.1,12.5L85.1,12.5c-0.9-0.9-2.5-0.6-3.6,0.5L15.7,78.5c-1.1,1.1-1.4,2.8-0.5,3.6l0,0   c0.9,0.9,2.5,0.6,3.6-0.5l16-15.9v0l26.1-26v0l23.7-23.6C85.7,15,86,13.4,85.1,12.5z"></path></g></svg>